<svg id="home_work-24px" xmlns="http://www.w3.org/2000/svg" width="24" height="24" viewBox="0 0 24 24">
  <defs>
    <style>
      .cls-1 {
        fill: none;
      }

      .cls-2 {
        fill: #fff;
      }
    </style>
  </defs>
  <g id="Bounding_Box">
    <rect id="Rectangle_108" data-name="Rectangle 108" class="cls-1" width="24" height="24"/>
    <rect id="Rectangle_109" data-name="Rectangle 109" class="cls-1" width="24" height="24"/>
  </g>
  <g id="Master">
    <g id="Group_294" data-name="Group 294">
      <path id="Path_310" data-name="Path 310" class="cls-2" d="M20,3H12a1,1,0,0,0-1,1V5.61l.01.01,5,4.5A2.991,2.991,0,0,1,17,12.35V13h2v2H17v2h2v2H17v2h3a1,1,0,0,0,1-1V4A1,1,0,0,0,20,3ZM15,7H13V5h2Zm4,4H17V9h2Zm0-4H17V5h2Z"/>
      <path id="Path_311" data-name="Path 311" class="cls-2" d="M15,20V12.35a1,1,0,0,0-.33-.74l-5-4.5A.961.961,0,0,0,9,6.85a1.008,1.008,0,0,0-.67.26l-5,4.5a.969.969,0,0,0-.33.74V20a1,1,0,0,0,1,1H6a1,1,0,0,0,1-1V16h4v4a1,1,0,0,0,1,1h2A1,1,0,0,0,15,20Z"/>
    </g>
  </g>
</svg>
